# Tiled2Unity generated file. Do not modify by hand.
# Wavefront file for 'OverWorldTest_mesh_0002.obj'

# Vertices (Count = 664)
v -24 -1 0
v -25 -1 0
v -25 0 0
v -24 0 0
v -23 -1 0
v -24 -1 0
v -24 0 0
v -23 0 0
v -22 -1 0
v -23 -1 0
v -23 0 0
v -22 0 0
v -21 -1 0
v -22 -1 0
v -22 0 0
v -21 0 0
v -20 -1 0
v -21 -1 0
v -21 0 0
v -20 0 0
v -19 -1 0
v -20 -1 0
v -20 0 0
v -19 0 0
v -18 -1 0
v -19 -1 0
v -19 0 0
v -18 0 0
v -17 -1 0
v -18 -1 0
v -18 0 0
v -17 0 0
v -16 -1 0
v -17 -1 0
v -17 0 0
v -16 0 0
v -15 -1 0
v -16 -1 0
v -16 0 0
v -15 0 0
v -14 -1 0
v -15 -1 0
v -15 0 0
v -14 0 0
v -13 -1 0
v -14 -1 0
v -14 0 0
v -13 0 0
v -12 -1 0
v -13 -1 0
v -13 0 0
v -12 0 0
v -11 -1 0
v -12 -1 0
v -12 0 0
v -11 0 0
v -10 -1 0
v -11 -1 0
v -11 0 0
v -10 0 0
v -9 -1 0
v -10 -1 0
v -10 0 0
v -9 0 0
v -8 -1 0
v -9 -1 0
v -9 0 0
v -8 0 0
v -7 -1 0
v -8 -1 0
v -8 0 0
v -7 0 0
v -6 -1 0
v -7 -1 0
v -7 0 0
v -6 0 0
v -5 -1 0
v -6 -1 0
v -6 0 0
v -5 0 0
v -4 -1 0
v -5 -1 0
v -5 0 0
v -4 0 0
v -3 -1 0
v -4 -1 0
v -4 0 0
v -3 0 0
v -2 -1 0
v -3 -1 0
v -3 0 0
v -2 0 0
v -1 -1 0
v -2 -1 0
v -2 0 0
v -1 0 0
v 0 -1 0
v -1 -1 0
v -1 0 0
v 0 0 0
v -24 -2 0
v -25 -2 0
v -25 -1 0
v -24 -1 0
v -19 -2 0
v -20 -2 0
v -20 -1 0
v -19 -1 0
v -18 -2 0
v -19 -2 0
v -19 -1 0
v -18 -1 0
v -17 -2 0
v -18 -2 0
v -18 -1 0
v -17 -1 0
v -16 -2 0
v -17 -2 0
v -17 -1 0
v -16 -1 0
v -15 -2 0
v -16 -2 0
v -16 -1 0
v -15 -1 0
v -2 -2 0
v -3 -2 0
v -3 -1 0
v -2 -1 0
v -1 -2 0
v -2 -2 0
v -2 -1 0
v -1 -1 0
v 0 -2 0
v -1 -2 0
v -1 -1 0
v 0 -1 0
v -24 -3 0
v -25 -3 0
v -25 -2 0
v -24 -2 0
v -19 -3 0
v -20 -3 0
v -20 -2 0
v -19 -2 0
v -18 -3 0
v -19 -3 0
v -19 -2 0
v -18 -2 0
v -17 -3 0
v -18 -3 0
v -18 -2 0
v -17 -2 0
v -16 -3 0
v -17 -3 0
v -17 -2 0
v -16 -2 0
v -15 -3 0
v -16 -3 0
v -16 -2 0
v -15 -2 0
v -13 -3 0
v -14 -3 0
v -14 -2 0
v -13 -2 0
v -12 -3 0
v -13 -3 0
v -13 -2 0
v -12 -2 0
v -11 -3 0
v -12 -3 0
v -12 -2 0
v -11 -2 0
v -2 -3 0
v -3 -3 0
v -3 -2 0
v -2 -2 0
v -1 -3 0
v -2 -3 0
v -2 -2 0
v -1 -2 0
v 0 -3 0
v -1 -3 0
v -1 -2 0
v 0 -2 0
v -24 -4 0
v -25 -4 0
v -25 -3 0
v -24 -3 0
v -20 -4 0
v -21 -4 0
v -21 -3 0
v -20 -3 0
v -19 -4 0
v -20 -4 0
v -20 -3 0
v -19 -3 0
v -18 -4 0
v -19 -4 0
v -19 -3 0
v -18 -3 0
v -17 -4 0
v -18 -4 0
v -18 -3 0
v -17 -3 0
v -16 -4 0
v -17 -4 0
v -17 -3 0
v -16 -3 0
v -15 -4 0
v -16 -4 0
v -16 -3 0
v -15 -3 0
v -13 -4 0
v -14 -4 0
v -14 -3 0
v -13 -3 0
v -12 -4 0
v -13 -4 0
v -13 -3 0
v -12 -3 0
v -11 -4 0
v -12 -4 0
v -12 -3 0
v -11 -3 0
v 0 -4 0
v -1 -4 0
v -1 -3 0
v 0 -3 0
v -24 -5 0
v -25 -5 0
v -25 -4 0
v -24 -4 0
v -21 -5 0
v -22 -5 0
v -22 -4 0
v -21 -4 0
v -20 -5 0
v -21 -5 0
v -21 -4 0
v -20 -4 0
v -19 -5 0
v -20 -5 0
v -20 -4 0
v -19 -4 0
v -18 -5 0
v -19 -5 0
v -19 -4 0
v -18 -4 0
v -17 -5 0
v -18 -5 0
v -18 -4 0
v -17 -4 0
v -16 -5 0
v -17 -5 0
v -17 -4 0
v -16 -4 0
v -15 -5 0
v -16 -5 0
v -16 -4 0
v -15 -4 0
v -24 -6 0
v -25 -6 0
v -25 -5 0
v -24 -5 0
v -21 -6 0
v -22 -6 0
v -22 -5 0
v -21 -5 0
v -20 -6 0
v -21 -6 0
v -21 -5 0
v -20 -5 0
v 0 -6 0
v -1 -6 0
v -1 -5 0
v 0 -5 0
v -24 -7 0
v -25 -7 0
v -25 -6 0
v -24 -6 0
v 0 -7 0
v -1 -7 0
v -1 -6 0
v 0 -6 0
v -24 -8 0
v -25 -8 0
v -25 -7 0
v -24 -7 0
v 0 -8 0
v -1 -8 0
v -1 -7 0
v 0 -7 0
v -24 -9 0
v -25 -9 0
v -25 -8 0
v -24 -8 0
v 0 -9 0
v -1 -9 0
v -1 -8 0
v 0 -8 0
v 0 -10 0
v -1 -10 0
v -1 -9 0
v 0 -9 0
v -24 -11 0
v -25 -11 0
v -25 -10 0
v -24 -10 0
v -5 -11 0
v -6 -11 0
v -6 -10 0
v -5 -10 0
v -4 -11 0
v -5 -11 0
v -5 -10 0
v -4 -10 0
v -3 -11 0
v -4 -11 0
v -4 -10 0
v -3 -10 0
v 0 -11 0
v -1 -11 0
v -1 -10 0
v 0 -10 0
v -24 -12 0
v -25 -12 0
v -25 -11 0
v -24 -11 0
v -16 -12 0
v -17 -12 0
v -17 -11 0
v -16 -11 0
v -15 -12 0
v -16 -12 0
v -16 -11 0
v -15 -11 0
v 0 -12 0
v -1 -12 0
v -1 -11 0
v 0 -11 0
v -24 -13 0
v -25 -13 0
v -25 -12 0
v -24 -12 0
v -16 -13 0
v -17 -13 0
v -17 -12 0
v -16 -12 0
v -15 -13 0
v -16 -13 0
v -16 -12 0
v -15 -12 0
v -14 -13 0
v -15 -13 0
v -15 -12 0
v -14 -12 0
v 0 -13 0
v -1 -13 0
v -1 -12 0
v 0 -12 0
v -24 -14 0
v -25 -14 0
v -25 -13 0
v -24 -13 0
v -17 -14 0
v -18 -14 0
v -18 -13 0
v -17 -13 0
v -16 -14 0
v -17 -14 0
v -17 -13 0
v -16 -13 0
v -15 -14 0
v -16 -14 0
v -16 -13 0
v -15 -13 0
v -14 -14 0
v -15 -14 0
v -15 -13 0
v -14 -13 0
v -9 -14 0
v -10 -14 0
v -10 -13 0
v -9 -13 0
v -8 -14 0
v -9 -14 0
v -9 -13 0
v -8 -13 0
v -7 -14 0
v -8 -14 0
v -8 -13 0
v -7 -13 0
v -6 -14 0
v -7 -14 0
v -7 -13 0
v -6 -13 0
v 0 -14 0
v -1 -14 0
v -1 -13 0
v 0 -13 0
v -24 -15 0
v -25 -15 0
v -25 -14 0
v -24 -14 0
v -18 -15 0
v -19 -15 0
v -19 -14 0
v -18 -14 0
v -17 -15 0
v -18 -15 0
v -18 -14 0
v -17 -14 0
v -16 -15 0
v -17 -15 0
v -17 -14 0
v -16 -14 0
v -11 -15 0
v -12 -15 0
v -12 -14 0
v -11 -14 0
v -10 -15 0
v -11 -15 0
v -11 -14 0
v -10 -14 0
v -9 -15 0
v -10 -15 0
v -10 -14 0
v -9 -14 0
v -8 -15 0
v -9 -15 0
v -9 -14 0
v -8 -14 0
v -7 -15 0
v -8 -15 0
v -8 -14 0
v -7 -14 0
v -6 -15 0
v -7 -15 0
v -7 -14 0
v -6 -14 0
v -5 -15 0
v -6 -15 0
v -6 -14 0
v -5 -14 0
v -4 -15 0
v -5 -15 0
v -5 -14 0
v -4 -14 0
v 0 -15 0
v -1 -15 0
v -1 -14 0
v 0 -14 0
v -24 -16 0
v -25 -16 0
v -25 -15 0
v -24 -15 0
v -12 -16 0
v -13 -16 0
v -13 -15 0
v -12 -15 0
v -11 -16 0
v -12 -16 0
v -12 -15 0
v -11 -15 0
v -10 -16 0
v -11 -16 0
v -11 -15 0
v -10 -15 0
v -9 -16 0
v -10 -16 0
v -10 -15 0
v -9 -15 0
v -5 -16 0
v -6 -16 0
v -6 -15 0
v -5 -15 0
v -4 -16 0
v -5 -16 0
v -5 -15 0
v -4 -15 0
v 0 -16 0
v -1 -16 0
v -1 -15 0
v 0 -15 0
v -24 -17 0
v -25 -17 0
v -25 -16 0
v -24 -16 0
v -11 -17 0
v -12 -17 0
v -12 -16 0
v -11 -16 0
v 0 -17 0
v -1 -17 0
v -1 -16 0
v 0 -16 0
v -24 -18 0
v -25 -18 0
v -25 -17 0
v -24 -17 0
v 0 -18 0
v -1 -18 0
v -1 -17 0
v 0 -17 0
v -24 -19 0
v -25 -19 0
v -25 -18 0
v -24 -18 0
v -21 -19 0
v -22 -19 0
v -22 -18 0
v -21 -18 0
v -20 -19 0
v -21 -19 0
v -21 -18 0
v -20 -18 0
v 0 -19 0
v -1 -19 0
v -1 -18 0
v 0 -18 0
v -24 -20 0
v -25 -20 0
v -25 -19 0
v -24 -19 0
v -21 -20 0
v -22 -20 0
v -22 -19 0
v -21 -19 0
v -20 -20 0
v -21 -20 0
v -21 -19 0
v -20 -19 0
v 0 -20 0
v -1 -20 0
v -1 -19 0
v 0 -19 0
v -24 -21 0
v -25 -21 0
v -25 -20 0
v -24 -20 0
v 0 -21 0
v -1 -21 0
v -1 -20 0
v 0 -20 0
v -24 -22 0
v -25 -22 0
v -25 -21 0
v -24 -21 0
v 0 -22 0
v -1 -22 0
v -1 -21 0
v 0 -21 0
v -24 -23 0
v -25 -23 0
v -25 -22 0
v -24 -22 0
v 0 -23 0
v -1 -23 0
v -1 -22 0
v 0 -22 0
v -24 -24 0
v -25 -24 0
v -25 -23 0
v -24 -23 0
v 0 -24 0
v -1 -24 0
v -1 -23 0
v 0 -23 0
v -24 -25 0
v -25 -25 0
v -25 -24 0
v -24 -24 0
v -23 -25 0
v -24 -25 0
v -24 -24 0
v -23 -24 0
v -22 -25 0
v -23 -25 0
v -23 -24 0
v -22 -24 0
v -21 -25 0
v -22 -25 0
v -22 -24 0
v -21 -24 0
v -20 -25 0
v -21 -25 0
v -21 -24 0
v -20 -24 0
v -19 -25 0
v -20 -25 0
v -20 -24 0
v -19 -24 0
v -18 -25 0
v -19 -25 0
v -19 -24 0
v -18 -24 0
v -17 -25 0
v -18 -25 0
v -18 -24 0
v -17 -24 0
v -16 -25 0
v -17 -25 0
v -17 -24 0
v -16 -24 0
v -15 -25 0
v -16 -25 0
v -16 -24 0
v -15 -24 0
v -14 -25 0
v -15 -25 0
v -15 -24 0
v -14 -24 0
v -13 -25 0
v -14 -25 0
v -14 -24 0
v -13 -24 0
v -12 -25 0
v -13 -25 0
v -13 -24 0
v -12 -24 0
v -11 -25 0
v -12 -25 0
v -12 -24 0
v -11 -24 0
v -9 -25 0
v -10 -25 0
v -10 -24 0
v -9 -24 0
v -8 -25 0
v -9 -25 0
v -9 -24 0
v -8 -24 0
v -7 -25 0
v -8 -25 0
v -8 -24 0
v -7 -24 0
v -6 -25 0
v -7 -25 0
v -7 -24 0
v -6 -24 0
v -5 -25 0
v -6 -25 0
v -6 -24 0
v -5 -24 0
v -4 -25 0
v -5 -25 0
v -5 -24 0
v -4 -24 0
v -3 -25 0
v -4 -25 0
v -4 -24 0
v -3 -24 0
v -2 -25 0
v -3 -25 0
v -3 -24 0
v -2 -24 0
v -1 -25 0
v -2 -25 0
v -2 -24 0
v -1 -24 0
v 0 -25 0
v -1 -25 0
v -1 -24 0
v 0 -24 0

# Texture cooridinates (Count = 127)
vt 0.075 0.4444444
vt 0.1 0.4444444
vt 0.1 0.4722222
vt 0.075 0.4722222
vt 0.125 0.4444444
vt 0.15 0.4444444
vt 0.15 0.4722222
vt 0.125 0.4722222
vt 0.175 0.4722222
vt 0.175 0.5
vt 0.15 0.5
vt 0.25 0.9444444
vt 0.275 0.9444444
vt 0.275 0.9722222
vt 0.25 0.9722222
vt 0.225 0.9444444
vt 0.225 0.9722222
vt 0.2 0.9444444
vt 0.2 0.9722222
vt 0.175 0.9444444
vt 0.175 0.9722222
vt 0.15 0.9444444
vt 0.15 0.9722222
vt 0.9 0.8333333
vt 0.925 0.8333333
vt 0.925 0.8611111
vt 0.9 0.8611111
vt 0.875 0.8333333
vt 0.875 0.8611111
vt 0.2 0.4722222
vt 0.2 0.5
vt 0.25 0.9166667
vt 0.275 0.9166667
vt 0.225 0.9166667
vt 0.2 0.9166667
vt 0.175 0.9166667
vt 0.15 0.9166667
vt 0.75 0.8611111
vt 0.775 0.8611111
vt 0.775 0.8888889
vt 0.75 0.8888889
vt 0.725 0.8611111
vt 0.725 0.8888889
vt 0.7 0.8611111
vt 0.7 0.8888889
vt 0.9 0.8055556
vt 0.925 0.8055556
vt 0.875 0.8055556
vt 0.2 0.8333333
vt 0.225 0.8333333
vt 0.225 0.8611111
vt 0.2 0.8611111
vt 0.25 0.8888889
vt 0.275 0.8888889
vt 0.225 0.8888889
vt 0.2 0.8888889
vt 0.175 0.8888889
vt 0.15 0.8888889
vt 0.75 0.8333333
vt 0.775 0.8333333
vt 0.725 0.8333333
vt 0.7 0.8333333
vt 0.175 0.5277778
vt 0.15 0.5277778
vt 0.825 0.9722222
vt 0.85 0.9722222
vt 0.85 1
vt 0.825 1
vt 0.75 0.9722222
vt 0.775 0.9722222
vt 0.775 1
vt 0.75 1
vt 0.25 0.8611111
vt 0.275 0.8611111
vt 0.175 0.8611111
vt 0.15 0.8611111
vt 0.825 0.9444444
vt 0.85 0.9444444
vt 0.75 0.9444444
vt 0.775 0.9444444
vt 0.175 0.5555556
vt 0.15 0.5555556
vt 0.125 0.5
vt 0.125 0.5277778
vt 0.125 0.5555556
vt 0.125 0.8333333
vt 0.15 0.8333333
vt 0.125 0.8611111
vt 0.1 0.8333333
vt 0.1 0.8611111
vt 0.075 0.8333333
vt 0.075 0.8611111
vt 0 0.9722222
vt 0.025 0.9722222
vt 0.025 1
vt 0 1
vt 0.125 0.9444444
vt 0.125 0.9722222
vt 0.1 0.9444444
vt 0.1 0.9722222
vt 0.25 0.6666666
vt 0.275 0.6666666
vt 0.275 0.6944444
vt 0.25 0.6944444
vt 0.225 0.6666666
vt 0.225 0.6944444
vt 0.125 0.9166667
vt 0.1 0.9166667
vt 0.175 0.8333333
vt 0.25 0.6388889
vt 0.275 0.6388889
vt 0.225 0.6388889
vt 0.05 0.5833334
vt 0.075 0.5833334
vt 0.075 0.6111111
vt 0.05 0.6111111
vt 0.8 0.8888889
vt 0.825 0.8888889
vt 0.825 0.9166667
vt 0.8 0.9166667
vt 0.775 0.9166667
vt 0.8 0.8611111
vt 0.825 0.8611111
vt 0.075 0.5277778
vt 0.1 0.5277778
vt 0.1 0.5555556
vt 0.075 0.5555556

# Normal
vn 0 0 -1

# Mesh description
g OverWorldTest_mesh_0002

# Faces
f 1/1/1 2/2/1 3/3/1 4/4/1
f 5/5/1 6/6/1 7/7/1 8/8/1
f 9/5/1 10/6/1 11/7/1 12/8/1
f 13/5/1 14/6/1 15/7/1 16/8/1
f 17/5/1 18/6/1 19/7/1 20/8/1
f 21/5/1 22/6/1 23/7/1 24/8/1
f 25/5/1 26/6/1 27/7/1 28/8/1
f 29/5/1 30/6/1 31/7/1 32/8/1
f 33/5/1 34/6/1 35/7/1 36/8/1
f 37/5/1 38/6/1 39/7/1 40/8/1
f 41/5/1 42/6/1 43/7/1 44/8/1
f 45/5/1 46/6/1 47/7/1 48/8/1
f 49/5/1 50/6/1 51/7/1 52/8/1
f 53/5/1 54/6/1 55/7/1 56/8/1
f 57/5/1 58/6/1 59/7/1 60/8/1
f 61/5/1 62/6/1 63/7/1 64/8/1
f 65/5/1 66/6/1 67/7/1 68/8/1
f 69/5/1 70/6/1 71/7/1 72/8/1
f 73/5/1 74/6/1 75/7/1 76/8/1
f 77/5/1 78/6/1 79/7/1 80/8/1
f 81/5/1 82/6/1 83/7/1 84/8/1
f 85/5/1 86/6/1 87/7/1 88/8/1
f 89/5/1 90/6/1 91/7/1 92/8/1
f 93/5/1 94/6/1 95/7/1 96/8/1
f 97/2/1 98/5/1 99/8/1 100/3/1
f 101/7/1 102/9/1 103/10/1 104/11/1
f 105/12/1 106/13/1 107/14/1 108/15/1
f 109/16/1 110/12/1 111/15/1 112/17/1
f 113/18/1 114/16/1 115/17/1 116/19/1
f 117/20/1 118/18/1 119/19/1 120/21/1
f 121/22/1 122/20/1 123/21/1 124/23/1
f 125/24/1 126/25/1 127/26/1 128/27/1
f 129/28/1 130/24/1 131/27/1 132/29/1
f 133/9/1 134/30/1 135/31/1 136/10/1
f 137/7/1 138/9/1 139/10/1 140/11/1
f 141/32/1 142/33/1 143/13/1 144/12/1
f 145/34/1 146/32/1 147/12/1 148/16/1
f 149/35/1 150/34/1 151/16/1 152/18/1
f 153/36/1 154/35/1 155/18/1 156/20/1
f 157/37/1 158/36/1 159/20/1 160/22/1
f 161/38/1 162/39/1 163/40/1 164/41/1
f 165/42/1 166/38/1 167/41/1 168/43/1
f 169/44/1 170/42/1 171/43/1 172/45/1
f 173/46/1 174/47/1 175/25/1 176/24/1
f 177/48/1 178/46/1 179/24/1 180/28/1
f 181/9/1 182/30/1 183/31/1 184/10/1
f 185/7/1 186/9/1 187/10/1 188/11/1
f 189/49/1 190/50/1 191/51/1 192/52/1
f 193/53/1 194/54/1 195/33/1 196/32/1
f 197/55/1 198/53/1 199/32/1 200/34/1
f 201/56/1 202/55/1 203/34/1 204/35/1
f 205/57/1 206/56/1 207/35/1 208/36/1
f 209/58/1 210/57/1 211/36/1 212/37/1
f 213/59/1 214/60/1 215/39/1 216/38/1
f 217/61/1 218/59/1 219/38/1 220/42/1
f 221/62/1 222/61/1 223/42/1 224/44/1
f 225/11/1 226/10/1 227/63/1 228/64/1
f 229/7/1 230/9/1 231/10/1 232/11/1
f 233/65/1 234/66/1 235/67/1 236/68/1
f 237/69/1 238/70/1 239/71/1 240/72/1
f 241/73/1 242/74/1 243/54/1 244/53/1
f 245/51/1 246/73/1 247/53/1 248/55/1
f 249/52/1 250/51/1 251/55/1 252/56/1
f 253/75/1 254/52/1 255/56/1 256/57/1
f 257/76/1 258/75/1 259/57/1 260/58/1
f 261/7/1 262/9/1 263/10/1 264/11/1
f 265/77/1 266/78/1 267/66/1 268/65/1
f 269/79/1 270/80/1 271/70/1 272/69/1
f 273/64/1 274/63/1 275/81/1 276/82/1
f 277/7/1 278/9/1 279/10/1 280/11/1
f 281/9/1 282/30/1 283/31/1 284/10/1
f 285/7/1 286/9/1 287/10/1 288/11/1
f 289/9/1 290/30/1 291/31/1 292/10/1
f 293/83/1 294/11/1 295/64/1 296/84/1
f 297/9/1 298/30/1 299/31/1 300/10/1
f 301/9/1 302/30/1 303/31/1 304/10/1
f 305/84/1 306/64/1 307/82/1 308/85/1
f 309/86/1 310/87/1 311/76/1 312/88/1
f 313/89/1 314/86/1 315/88/1 316/90/1
f 317/91/1 318/89/1 319/90/1 320/92/1
f 321/9/1 322/30/1 323/31/1 324/10/1
f 325/7/1 326/9/1 327/10/1 328/11/1
f 329/93/1 330/94/1 331/95/1 332/96/1
f 333/93/1 334/94/1 335/95/1 336/96/1
f 337/9/1 338/30/1 339/31/1 340/10/1
f 341/7/1 342/9/1 343/10/1 344/11/1
f 345/93/1 346/94/1 347/95/1 348/96/1
f 349/97/1 350/22/1 351/23/1 352/98/1
f 353/99/1 354/97/1 355/98/1 356/100/1
f 357/9/1 358/30/1 359/31/1 360/10/1
f 361/7/1 362/9/1 363/10/1 364/11/1
f 365/101/1 366/102/1 367/103/1 368/104/1
f 369/105/1 370/101/1 371/104/1 372/106/1
f 373/107/1 374/37/1 375/22/1 376/97/1
f 377/108/1 378/107/1 379/97/1 380/99/1
f 381/64/1 382/63/1 383/81/1 384/82/1
f 385/84/1 386/64/1 387/82/1 388/85/1
f 389/64/1 390/63/1 391/81/1 392/82/1
f 393/84/1 394/64/1 395/82/1 396/85/1
f 397/9/1 398/30/1 399/31/1 400/10/1
f 401/7/1 402/9/1 403/10/1 404/11/1
f 405/109/1 406/49/1 407/52/1 408/75/1
f 409/110/1 410/111/1 411/102/1 412/101/1
f 413/112/1 414/110/1 415/101/1 416/105/1
f 417/64/1 418/63/1 419/81/1 420/82/1
f 421/84/1 422/64/1 423/82/1 424/85/1
f 425/11/1 426/10/1 427/63/1 428/64/1
f 429/83/1 430/11/1 431/64/1 432/84/1
f 433/11/1 434/10/1 435/63/1 436/64/1
f 437/83/1 438/11/1 439/64/1 440/84/1
f 441/64/1 442/63/1 443/81/1 444/82/1
f 445/84/1 446/64/1 447/82/1 448/85/1
f 449/9/1 450/30/1 451/31/1 452/10/1
f 453/7/1 454/9/1 455/10/1 456/11/1
f 457/113/1 458/114/1 459/115/1 460/116/1
f 461/11/1 462/10/1 463/63/1 464/64/1
f 465/83/1 466/11/1 467/64/1 468/84/1
f 469/113/1 470/114/1 471/115/1 472/116/1
f 473/11/1 474/10/1 475/63/1 476/64/1
f 477/83/1 478/11/1 479/64/1 480/84/1
f 481/9/1 482/30/1 483/31/1 484/10/1
f 485/7/1 486/9/1 487/10/1 488/11/1
f 489/113/1 490/114/1 491/115/1 492/116/1
f 493/9/1 494/30/1 495/31/1 496/10/1
f 497/7/1 498/9/1 499/10/1 500/11/1
f 501/9/1 502/30/1 503/31/1 504/10/1
f 505/7/1 506/9/1 507/10/1 508/11/1
f 509/117/1 510/118/1 511/119/1 512/120/1
f 513/40/1 514/117/1 515/120/1 516/121/1
f 517/9/1 518/30/1 519/31/1 520/10/1
f 521/7/1 522/9/1 523/10/1 524/11/1
f 525/122/1 526/123/1 527/118/1 528/117/1
f 529/39/1 530/122/1 531/117/1 532/40/1
f 533/9/1 534/30/1 535/31/1 536/10/1
f 537/7/1 538/9/1 539/10/1 540/11/1
f 541/9/1 542/30/1 543/31/1 544/10/1
f 545/7/1 546/9/1 547/10/1 548/11/1
f 549/9/1 550/30/1 551/31/1 552/10/1
f 553/7/1 554/9/1 555/10/1 556/11/1
f 557/9/1 558/30/1 559/31/1 560/10/1
f 561/7/1 562/9/1 563/10/1 564/11/1
f 565/9/1 566/30/1 567/31/1 568/10/1
f 569/124/1 570/125/1 571/126/1 572/127/1
f 573/8/1 574/7/1 575/11/1 576/83/1
f 577/8/1 578/7/1 579/11/1 580/83/1
f 581/8/1 582/7/1 583/11/1 584/83/1
f 585/8/1 586/7/1 587/11/1 588/83/1
f 589/8/1 590/7/1 591/11/1 592/83/1
f 593/8/1 594/7/1 595/11/1 596/83/1
f 597/8/1 598/7/1 599/11/1 600/83/1
f 601/8/1 602/7/1 603/11/1 604/83/1
f 605/8/1 606/7/1 607/11/1 608/83/1
f 609/8/1 610/7/1 611/11/1 612/83/1
f 613/8/1 614/7/1 615/11/1 616/83/1
f 617/8/1 618/7/1 619/11/1 620/83/1
f 621/84/1 622/64/1 623/82/1 624/85/1
f 625/64/1 626/63/1 627/81/1 628/82/1
f 629/8/1 630/7/1 631/11/1 632/83/1
f 633/8/1 634/7/1 635/11/1 636/83/1
f 637/8/1 638/7/1 639/11/1 640/83/1
f 641/8/1 642/7/1 643/11/1 644/83/1
f 645/8/1 646/7/1 647/11/1 648/83/1
f 649/8/1 650/7/1 651/11/1 652/83/1
f 653/8/1 654/7/1 655/11/1 656/83/1
f 657/8/1 658/7/1 659/11/1 660/83/1
f 661/125/1 662/84/1 663/85/1 664/126/1

