# Tiled2Unity generated file. Do not modify by hand.
# Wavefront file for 'South_mesh_0002.obj'

# Vertices (Count = 736)
v -24 -1 0
v -25 -1 0
v -25 0 0
v -24 0 0
v -23 -1 0
v -24 -1 0
v -24 0 0
v -23 0 0
v -22 -1 0
v -23 -1 0
v -23 0 0
v -22 0 0
v -21 -1 0
v -22 -1 0
v -22 0 0
v -21 0 0
v -20 -1 0
v -21 -1 0
v -21 0 0
v -20 0 0
v -19 -1 0
v -20 -1 0
v -20 0 0
v -19 0 0
v -18 -1 0
v -19 -1 0
v -19 0 0
v -18 0 0
v -17 -1 0
v -18 -1 0
v -18 0 0
v -17 0 0
v -16 -1 0
v -17 -1 0
v -17 0 0
v -16 0 0
v -15 -1 0
v -16 -1 0
v -16 0 0
v -15 0 0
v -14 -1 0
v -15 -1 0
v -15 0 0
v -14 0 0
v -13 -1 0
v -14 -1 0
v -14 0 0
v -13 0 0
v -12 -1 0
v -13 -1 0
v -13 0 0
v -12 0 0
v -8 -1 0
v -9 -1 0
v -9 0 0
v -8 0 0
v -7 -1 0
v -8 -1 0
v -8 0 0
v -7 0 0
v -6 -1 0
v -7 -1 0
v -7 0 0
v -6 0 0
v -5 -1 0
v -6 -1 0
v -6 0 0
v -5 0 0
v -4 -1 0
v -5 -1 0
v -5 0 0
v -4 0 0
v -3 -1 0
v -4 -1 0
v -4 0 0
v -3 0 0
v -2 -1 0
v -3 -1 0
v -3 0 0
v -2 0 0
v -1 -1 0
v -2 -1 0
v -2 0 0
v -1 0 0
v 0 -1 0
v -1 -1 0
v -1 0 0
v 0 0 0
v -24 -2 0
v -25 -2 0
v -25 -1 0
v -24 -1 0
v 0 -2 0
v -1 -2 0
v -1 -1 0
v 0 -1 0
v -24 -3 0
v -25 -3 0
v -25 -2 0
v -24 -2 0
v -22 -3 0
v -23 -3 0
v -23 -2 0
v -22 -2 0
v -21 -3 0
v -22 -3 0
v -22 -2 0
v -21 -2 0
v -20 -3 0
v -21 -3 0
v -21 -2 0
v -20 -2 0
v -19 -3 0
v -20 -3 0
v -20 -2 0
v -19 -2 0
v -18 -3 0
v -19 -3 0
v -19 -2 0
v -18 -2 0
v -3 -3 0
v -4 -3 0
v -4 -2 0
v -3 -2 0
v -2 -3 0
v -3 -3 0
v -3 -2 0
v -2 -2 0
v 0 -3 0
v -1 -3 0
v -1 -2 0
v 0 -2 0
v -24 -4 0
v -25 -4 0
v -25 -3 0
v -24 -3 0
v -22 -4 0
v -23 -4 0
v -23 -3 0
v -22 -3 0
v -21 -4 0
v -22 -4 0
v -22 -3 0
v -21 -3 0
v -20 -4 0
v -21 -4 0
v -21 -3 0
v -20 -3 0
v -19 -4 0
v -20 -4 0
v -20 -3 0
v -19 -3 0
v -18 -4 0
v -19 -4 0
v -19 -3 0
v -18 -3 0
v -17 -4 0
v -18 -4 0
v -18 -3 0
v -17 -3 0
v 0 -4 0
v -1 -4 0
v -1 -3 0
v 0 -3 0
v -24 -5 0
v -25 -5 0
v -25 -4 0
v -24 -4 0
v -22 -5 0
v -23 -5 0
v -23 -4 0
v -22 -4 0
v -21 -5 0
v -22 -5 0
v -22 -4 0
v -21 -4 0
v -20 -5 0
v -21 -5 0
v -21 -4 0
v -20 -4 0
v -19 -5 0
v -20 -5 0
v -20 -4 0
v -19 -4 0
v -18 -5 0
v -19 -5 0
v -19 -4 0
v -18 -4 0
v -17 -5 0
v -18 -5 0
v -18 -4 0
v -17 -4 0
v -16 -5 0
v -17 -5 0
v -17 -4 0
v -16 -4 0
v -15 -5 0
v -16 -5 0
v -16 -4 0
v -15 -4 0
v 0 -5 0
v -1 -5 0
v -1 -4 0
v 0 -4 0
v -24 -6 0
v -25 -6 0
v -25 -5 0
v -24 -5 0
v -22 -6 0
v -23 -6 0
v -23 -5 0
v -22 -5 0
v -21 -6 0
v -22 -6 0
v -22 -5 0
v -21 -5 0
v -20 -6 0
v -21 -6 0
v -21 -5 0
v -20 -5 0
v -19 -6 0
v -20 -6 0
v -20 -5 0
v -19 -5 0
v -18 -6 0
v -19 -6 0
v -19 -5 0
v -18 -5 0
v -17 -6 0
v -18 -6 0
v -18 -5 0
v -17 -5 0
v -16 -6 0
v -17 -6 0
v -17 -5 0
v -16 -5 0
v -15 -6 0
v -16 -6 0
v -16 -5 0
v -15 -5 0
v 0 -6 0
v -1 -6 0
v -1 -5 0
v 0 -5 0
v -24 -7 0
v -25 -7 0
v -25 -6 0
v -24 -6 0
v -22 -7 0
v -23 -7 0
v -23 -6 0
v -22 -6 0
v -21 -7 0
v -22 -7 0
v -22 -6 0
v -21 -6 0
v -20 -7 0
v -21 -7 0
v -21 -6 0
v -20 -6 0
v -19 -7 0
v -20 -7 0
v -20 -6 0
v -19 -6 0
v -18 -7 0
v -19 -7 0
v -19 -6 0
v -18 -6 0
v -17 -7 0
v -18 -7 0
v -18 -6 0
v -17 -6 0
v -16 -7 0
v -17 -7 0
v -17 -6 0
v -16 -6 0
v -15 -7 0
v -16 -7 0
v -16 -6 0
v -15 -6 0
v 0 -7 0
v -1 -7 0
v -1 -6 0
v 0 -6 0
v -24 -8 0
v -25 -8 0
v -25 -7 0
v -24 -7 0
v -22 -8 0
v -23 -8 0
v -23 -7 0
v -22 -7 0
v -21 -8 0
v -22 -8 0
v -22 -7 0
v -21 -7 0
v -20 -8 0
v -21 -8 0
v -21 -7 0
v -20 -7 0
v -19 -8 0
v -20 -8 0
v -20 -7 0
v -19 -7 0
v -18 -8 0
v -19 -8 0
v -19 -7 0
v -18 -7 0
v -17 -8 0
v -18 -8 0
v -18 -7 0
v -17 -7 0
v 0 -8 0
v -1 -8 0
v -1 -7 0
v 0 -7 0
v -24 -9 0
v -25 -9 0
v -25 -8 0
v -24 -8 0
v -22 -9 0
v -23 -9 0
v -23 -8 0
v -22 -8 0
v -21 -9 0
v -22 -9 0
v -22 -8 0
v -21 -8 0
v -20 -9 0
v -21 -9 0
v -21 -8 0
v -20 -8 0
v -19 -9 0
v -20 -9 0
v -20 -8 0
v -19 -8 0
v -18 -9 0
v -19 -9 0
v -19 -8 0
v -18 -8 0
v -6 -9 0
v -7 -9 0
v -7 -8 0
v -6 -8 0
v 0 -9 0
v -1 -9 0
v -1 -8 0
v 0 -8 0
v -24 -10 0
v -25 -10 0
v -25 -9 0
v -24 -9 0
v -22 -10 0
v -23 -10 0
v -23 -9 0
v -22 -9 0
v -21 -10 0
v -22 -10 0
v -22 -9 0
v -21 -9 0
v -20 -10 0
v -21 -10 0
v -21 -9 0
v -20 -9 0
v -19 -10 0
v -20 -10 0
v -20 -9 0
v -19 -9 0
v -7 -10 0
v -8 -10 0
v -8 -9 0
v -7 -9 0
v -6 -10 0
v -7 -10 0
v -7 -9 0
v -6 -9 0
v 0 -10 0
v -1 -10 0
v -1 -9 0
v 0 -9 0
v -24 -11 0
v -25 -11 0
v -25 -10 0
v -24 -10 0
v -22 -11 0
v -23 -11 0
v -23 -10 0
v -22 -10 0
v -21 -11 0
v -22 -11 0
v -22 -10 0
v -21 -10 0
v -20 -11 0
v -21 -11 0
v -21 -10 0
v -20 -10 0
v -6 -11 0
v -7 -11 0
v -7 -10 0
v -6 -10 0
v 0 -11 0
v -1 -11 0
v -1 -10 0
v 0 -10 0
v -24 -12 0
v -25 -12 0
v -25 -11 0
v -24 -11 0
v -16 -12 0
v -17 -12 0
v -17 -11 0
v -16 -11 0
v -4 -12 0
v -5 -12 0
v -5 -11 0
v -4 -11 0
v -3 -12 0
v -4 -12 0
v -4 -11 0
v -3 -11 0
v -2 -12 0
v -3 -12 0
v -3 -11 0
v -2 -11 0
v -1 -12 0
v -2 -12 0
v -2 -11 0
v -1 -11 0
v 0 -12 0
v -1 -12 0
v -1 -11 0
v 0 -11 0
v -24 -13 0
v -25 -13 0
v -25 -12 0
v -24 -12 0
v -4 -13 0
v -5 -13 0
v -5 -12 0
v -4 -12 0
v -3 -13 0
v -4 -13 0
v -4 -12 0
v -3 -12 0
v -2 -13 0
v -3 -13 0
v -3 -12 0
v -2 -12 0
v -1 -13 0
v -2 -13 0
v -2 -12 0
v -1 -12 0
v 0 -13 0
v -1 -13 0
v -1 -12 0
v 0 -12 0
v -24 -14 0
v -25 -14 0
v -25 -13 0
v -24 -13 0
v -4 -14 0
v -5 -14 0
v -5 -13 0
v -4 -13 0
v -3 -14 0
v -4 -14 0
v -4 -13 0
v -3 -13 0
v -2 -14 0
v -3 -14 0
v -3 -13 0
v -2 -13 0
v -1 -14 0
v -2 -14 0
v -2 -13 0
v -1 -13 0
v 0 -14 0
v -1 -14 0
v -1 -13 0
v 0 -13 0
v -24 -15 0
v -25 -15 0
v -25 -14 0
v -24 -14 0
v -18 -15 0
v -19 -15 0
v -19 -14 0
v -18 -14 0
v -17 -15 0
v -18 -15 0
v -18 -14 0
v -17 -14 0
v -4 -15 0
v -5 -15 0
v -5 -14 0
v -4 -14 0
v -3 -15 0
v -4 -15 0
v -4 -14 0
v -3 -14 0
v -2 -15 0
v -3 -15 0
v -3 -14 0
v -2 -14 0
v -1 -15 0
v -2 -15 0
v -2 -14 0
v -1 -14 0
v 0 -15 0
v -1 -15 0
v -1 -14 0
v 0 -14 0
v -24 -16 0
v -25 -16 0
v -25 -15 0
v -24 -15 0
v 0 -16 0
v -1 -16 0
v -1 -15 0
v 0 -15 0
v -24 -17 0
v -25 -17 0
v -25 -16 0
v -24 -16 0
v -20 -17 0
v -21 -17 0
v -21 -16 0
v -20 -16 0
v -19 -17 0
v -20 -17 0
v -20 -16 0
v -19 -16 0
v 0 -17 0
v -1 -17 0
v -1 -16 0
v 0 -16 0
v -24 -18 0
v -25 -18 0
v -25 -17 0
v -24 -17 0
v -8 -18 0
v -9 -18 0
v -9 -17 0
v -8 -17 0
v -7 -18 0
v -8 -18 0
v -8 -17 0
v -7 -17 0
v 0 -18 0
v -1 -18 0
v -1 -17 0
v 0 -17 0
v -24 -19 0
v -25 -19 0
v -25 -18 0
v -24 -18 0
v -10 -19 0
v -11 -19 0
v -11 -18 0
v -10 -18 0
v -9 -19 0
v -10 -19 0
v -10 -18 0
v -9 -18 0
v -8 -19 0
v -9 -19 0
v -9 -18 0
v -8 -18 0
v -7 -19 0
v -8 -19 0
v -8 -18 0
v -7 -18 0
v 0 -19 0
v -1 -19 0
v -1 -18 0
v 0 -18 0
v -24 -20 0
v -25 -20 0
v -25 -19 0
v -24 -19 0
v -17 -20 0
v -18 -20 0
v -18 -19 0
v -17 -19 0
v -10 -20 0
v -11 -20 0
v -11 -19 0
v -10 -19 0
v -9 -20 0
v -10 -20 0
v -10 -19 0
v -9 -19 0
v 0 -20 0
v -1 -20 0
v -1 -19 0
v 0 -19 0
v -24 -21 0
v -25 -21 0
v -25 -20 0
v -24 -20 0
v 0 -21 0
v -1 -21 0
v -1 -20 0
v 0 -20 0
v -24 -22 0
v -25 -22 0
v -25 -21 0
v -24 -21 0
v 0 -22 0
v -1 -22 0
v -1 -21 0
v 0 -21 0
v -24 -23 0
v -25 -23 0
v -25 -22 0
v -24 -22 0
v -22 -23 0
v -23 -23 0
v -23 -22 0
v -22 -22 0
v -21 -23 0
v -22 -23 0
v -22 -22 0
v -21 -22 0
v 0 -23 0
v -1 -23 0
v -1 -22 0
v 0 -22 0
v -24 -24 0
v -25 -24 0
v -25 -23 0
v -24 -23 0
v 0 -24 0
v -1 -24 0
v -1 -23 0
v 0 -23 0
v -24 -25 0
v -25 -25 0
v -25 -24 0
v -24 -24 0
v -23 -25 0
v -24 -25 0
v -24 -24 0
v -23 -24 0
v -22 -25 0
v -23 -25 0
v -23 -24 0
v -22 -24 0
v -21 -25 0
v -22 -25 0
v -22 -24 0
v -21 -24 0
v -20 -25 0
v -21 -25 0
v -21 -24 0
v -20 -24 0
v -19 -25 0
v -20 -25 0
v -20 -24 0
v -19 -24 0
v -18 -25 0
v -19 -25 0
v -19 -24 0
v -18 -24 0
v -17 -25 0
v -18 -25 0
v -18 -24 0
v -17 -24 0
v -16 -25 0
v -17 -25 0
v -17 -24 0
v -16 -24 0
v -15 -25 0
v -16 -25 0
v -16 -24 0
v -15 -24 0
v -14 -25 0
v -15 -25 0
v -15 -24 0
v -14 -24 0
v -13 -25 0
v -14 -25 0
v -14 -24 0
v -13 -24 0
v -12 -25 0
v -13 -25 0
v -13 -24 0
v -12 -24 0
v -11 -25 0
v -12 -25 0
v -12 -24 0
v -11 -24 0
v -10 -25 0
v -11 -25 0
v -11 -24 0
v -10 -24 0
v -9 -25 0
v -10 -25 0
v -10 -24 0
v -9 -24 0
v -8 -25 0
v -9 -25 0
v -9 -24 0
v -8 -24 0
v -7 -25 0
v -8 -25 0
v -8 -24 0
v -7 -24 0
v -6 -25 0
v -7 -25 0
v -7 -24 0
v -6 -24 0
v -5 -25 0
v -6 -25 0
v -6 -24 0
v -5 -24 0
v -4 -25 0
v -5 -25 0
v -5 -24 0
v -4 -24 0
v -3 -25 0
v -4 -25 0
v -4 -24 0
v -3 -24 0
v -2 -25 0
v -3 -25 0
v -3 -24 0
v -2 -24 0
v -1 -25 0
v -2 -25 0
v -2 -24 0
v -1 -24 0
v 0 -25 0
v -1 -25 0
v -1 -24 0
v 0 -24 0

# Texture cooridinates (Count = 90)
vt 0.075 0.4444444
vt 0.1 0.4444444
vt 0.1 0.4722222
vt 0.075 0.4722222
vt 0.125 0.4444444
vt 0.15 0.4444444
vt 0.15 0.4722222
vt 0.125 0.4722222
vt 0.175 0.4722222
vt 0.175 0.5
vt 0.15 0.5
vt 0.2 0.4722222
vt 0.2 0.5
vt 0.05 0.5277778
vt 0.075 0.5277778
vt 0.075 0.5555556
vt 0.05 0.5555556
vt 0.1 0.5277778
vt 0.1 0.5555556
vt 0.25 0.6388889
vt 0.275 0.6388889
vt 0.275 0.6666666
vt 0.25 0.6666666
vt 0.225 0.6388889
vt 0.225 0.6666666
vt 0.125 0.5
vt 0.15 0.5277778
vt 0.125 0.5277778
vt 0.85 0.9722222
vt 0.875 0.9722222
vt 0.875 1
vt 0.85 1
vt 0.75 0.9444444
vt 0.775 0.9444444
vt 0.775 0.9722222
vt 0.75 0.9722222
vt 0.175 0.5277778
vt 0.85 0.9444444
vt 0.875 0.9444444
vt 0.85 0.9166667
vt 0.875 0.9166667
vt 0.425 0.6666666
vt 0.45 0.6666666
vt 0.45 0.6944444
vt 0.425 0.6944444
vt 0.4 0.6666666
vt 0.4 0.6944444
vt 0.375 0.6666666
vt 0.375 0.6944444
vt 0.425 0.6388889
vt 0.45 0.6388889
vt 0.4 0.6388889
vt 0.375 0.6388889
vt 0.8 0.8611111
vt 0.825 0.8611111
vt 0.825 0.8888889
vt 0.8 0.8888889
vt 0.775 0.8611111
vt 0.775 0.8888889
vt 0.425 0.6111111
vt 0.45 0.6111111
vt 0.4 0.6111111
vt 0.375 0.6111111
vt 0.3 0.7777778
vt 0.325 0.7777778
vt 0.325 0.8055556
vt 0.3 0.8055556
vt 0.275 0.7777778
vt 0.275 0.8055556
vt 0.35 0.75
vt 0.375 0.75
vt 0.375 0.7777778
vt 0.35 0.7777778
vt 0.325 0.75
vt 0.3 0.75
vt 0.275 0.75
vt 0.275 0.6944444
vt 0.3 0.6944444
vt 0.3 0.7222222
vt 0.275 0.7222222
vt 0.35 0.7222222
vt 0.375 0.7222222
vt 0.325 0.7222222
vt 0.9 0.8055556
vt 0.925 0.8055556
vt 0.925 0.8333333
vt 0.9 0.8333333
vt 0.875 0.8055556
vt 0.875 0.8333333
vt 0.125 0.5555556

# Normal
vn 0 0 -1

# Mesh description
g South_mesh_0002

# Faces
f 1/1/1 2/2/1 3/3/1 4/4/1
f 5/5/1 6/6/1 7/7/1 8/8/1
f 9/5/1 10/6/1 11/7/1 12/8/1
f 13/5/1 14/6/1 15/7/1 16/8/1
f 17/5/1 18/6/1 19/7/1 20/8/1
f 21/5/1 22/6/1 23/7/1 24/8/1
f 25/5/1 26/6/1 27/7/1 28/8/1
f 29/5/1 30/6/1 31/7/1 32/8/1
f 33/5/1 34/6/1 35/7/1 36/8/1
f 37/5/1 38/6/1 39/7/1 40/8/1
f 41/5/1 42/6/1 43/7/1 44/8/1
f 45/5/1 46/6/1 47/7/1 48/8/1
f 49/5/1 50/6/1 51/7/1 52/8/1
f 53/5/1 54/6/1 55/7/1 56/8/1
f 57/5/1 58/6/1 59/7/1 60/8/1
f 61/5/1 62/6/1 63/7/1 64/8/1
f 65/5/1 66/6/1 67/7/1 68/8/1
f 69/5/1 70/6/1 71/7/1 72/8/1
f 73/5/1 74/6/1 75/7/1 76/8/1
f 77/5/1 78/6/1 79/7/1 80/8/1
f 81/5/1 82/6/1 83/7/1 84/8/1
f 85/2/1 86/5/1 87/8/1 88/3/1
f 89/7/1 90/9/1 91/10/1 92/11/1
f 93/9/1 94/12/1 95/13/1 96/10/1
f 97/7/1 98/9/1 99/10/1 100/11/1
f 101/9/1 102/12/1 103/13/1 104/10/1
f 105/14/1 106/15/1 107/16/1 108/17/1
f 109/14/1 110/15/1 111/16/1 112/17/1
f 113/14/1 114/15/1 115/16/1 116/17/1
f 117/15/1 118/18/1 119/19/1 120/16/1
f 121/20/1 122/21/1 123/22/1 124/23/1
f 125/24/1 126/20/1 127/23/1 128/25/1
f 129/9/1 130/12/1 131/13/1 132/10/1
f 133/7/1 134/9/1 135/10/1 136/11/1
f 137/9/1 138/12/1 139/13/1 140/10/1
f 141/14/1 142/15/1 143/16/1 144/17/1
f 145/14/1 146/15/1 147/16/1 148/17/1
f 149/14/1 150/15/1 151/16/1 152/17/1
f 153/14/1 154/15/1 155/16/1 156/17/1
f 157/15/1 158/18/1 159/19/1 160/16/1
f 161/9/1 162/12/1 163/13/1 164/10/1
f 165/7/1 166/9/1 167/10/1 168/11/1
f 169/9/1 170/12/1 171/13/1 172/10/1
f 173/14/1 174/15/1 175/16/1 176/17/1
f 177/14/1 178/15/1 179/16/1 180/17/1
f 181/14/1 182/15/1 183/16/1 184/17/1
f 185/14/1 186/15/1 187/16/1 188/17/1
f 189/14/1 190/15/1 191/16/1 192/17/1
f 193/14/1 194/15/1 195/16/1 196/17/1
f 197/7/1 198/9/1 199/10/1 200/11/1
f 201/9/1 202/12/1 203/13/1 204/10/1
f 205/7/1 206/9/1 207/10/1 208/11/1
f 209/9/1 210/12/1 211/13/1 212/10/1
f 213/14/1 214/15/1 215/16/1 216/17/1
f 217/14/1 218/15/1 219/16/1 220/17/1
f 221/14/1 222/15/1 223/16/1 224/17/1
f 225/14/1 226/15/1 227/16/1 228/17/1
f 229/14/1 230/15/1 231/16/1 232/17/1
f 233/14/1 234/15/1 235/16/1 236/17/1
f 237/7/1 238/9/1 239/10/1 240/11/1
f 241/9/1 242/12/1 243/13/1 244/10/1
f 245/7/1 246/9/1 247/10/1 248/11/1
f 249/9/1 250/12/1 251/13/1 252/10/1
f 253/14/1 254/15/1 255/16/1 256/17/1
f 257/14/1 258/15/1 259/16/1 260/17/1
f 261/14/1 262/15/1 263/16/1 264/17/1
f 265/14/1 266/15/1 267/16/1 268/17/1
f 269/1/1 270/2/1 271/3/1 272/4/1
f 273/5/1 274/6/1 275/7/1 276/8/1
f 277/26/1 278/11/1 279/27/1 280/28/1
f 281/9/1 282/12/1 283/13/1 284/10/1
f 285/7/1 286/9/1 287/10/1 288/11/1
f 289/9/1 290/12/1 291/13/1 292/10/1
f 293/14/1 294/15/1 295/16/1 296/17/1
f 297/14/1 298/15/1 299/16/1 300/17/1
f 301/14/1 302/15/1 303/16/1 304/17/1
f 305/1/1 306/2/1 307/3/1 308/4/1
f 309/26/1 310/11/1 311/27/1 312/28/1
f 313/9/1 314/12/1 315/13/1 316/10/1
f 317/7/1 318/9/1 319/10/1 320/11/1
f 321/9/1 322/12/1 323/13/1 324/10/1
f 325/14/1 326/15/1 327/16/1 328/17/1
f 329/14/1 330/15/1 331/16/1 332/17/1
f 333/1/1 334/2/1 335/3/1 336/4/1
f 337/26/1 338/11/1 339/27/1 340/28/1
f 341/29/1 342/30/1 343/31/1 344/32/1
f 345/9/1 346/12/1 347/13/1 348/10/1
f 349/7/1 350/9/1 351/10/1 352/11/1
f 353/9/1 354/12/1 355/13/1 356/10/1
f 357/14/1 358/15/1 359/16/1 360/17/1
f 361/1/1 362/2/1 363/3/1 364/4/1
f 365/26/1 366/11/1 367/27/1 368/28/1
f 369/33/1 370/34/1 371/35/1 372/36/1
f 373/29/1 374/30/1 375/31/1 376/32/1
f 377/9/1 378/12/1 379/13/1 380/10/1
f 381/7/1 382/9/1 383/10/1 384/11/1
f 385/11/1 386/10/1 387/37/1 388/27/1
f 389/5/1 390/6/1 391/7/1 392/8/1
f 393/26/1 394/11/1 395/27/1 396/28/1
f 397/38/1 398/39/1 399/30/1 400/29/1
f 401/9/1 402/12/1 403/13/1 404/10/1
f 405/7/1 406/9/1 407/10/1 408/11/1
f 409/40/1 410/41/1 411/39/1 412/38/1
f 413/42/1 414/43/1 415/44/1 416/45/1
f 417/46/1 418/42/1 419/45/1 420/47/1
f 421/46/1 422/42/1 423/45/1 424/47/1
f 425/48/1 426/46/1 427/47/1 428/49/1
f 429/9/1 430/12/1 431/13/1 432/10/1
f 433/7/1 434/9/1 435/10/1 436/11/1
f 437/50/1 438/51/1 439/43/1 440/42/1
f 441/52/1 442/50/1 443/42/1 444/46/1
f 445/52/1 446/50/1 447/42/1 448/46/1
f 449/53/1 450/52/1 451/46/1 452/48/1
f 453/9/1 454/12/1 455/13/1 456/10/1
f 457/7/1 458/9/1 459/10/1 460/11/1
f 461/50/1 462/51/1 463/43/1 464/42/1
f 465/52/1 466/50/1 467/42/1 468/46/1
f 469/52/1 470/50/1 471/42/1 472/46/1
f 473/53/1 474/52/1 475/46/1 476/48/1
f 477/9/1 478/12/1 479/13/1 480/10/1
f 481/7/1 482/9/1 483/10/1 484/11/1
f 485/54/1 486/55/1 487/56/1 488/57/1
f 489/58/1 490/54/1 491/57/1 492/59/1
f 493/60/1 494/61/1 495/51/1 496/50/1
f 497/62/1 498/60/1 499/50/1 500/52/1
f 501/62/1 502/60/1 503/50/1 504/52/1
f 505/63/1 506/62/1 507/52/1 508/53/1
f 509/9/1 510/12/1 511/13/1 512/10/1
f 513/7/1 514/9/1 515/10/1 516/11/1
f 517/9/1 518/12/1 519/13/1 520/10/1
f 521/7/1 522/9/1 523/10/1 524/11/1
f 525/54/1 526/55/1 527/56/1 528/57/1
f 529/58/1 530/54/1 531/57/1 532/59/1
f 533/9/1 534/12/1 535/13/1 536/10/1
f 537/7/1 538/9/1 539/10/1 540/11/1
f 541/64/1 542/65/1 543/66/1 544/67/1
f 545/68/1 546/64/1 547/67/1 548/69/1
f 549/9/1 550/12/1 551/13/1 552/10/1
f 553/7/1 554/9/1 555/10/1 556/11/1
f 557/70/1 558/71/1 559/72/1 560/73/1
f 561/74/1 562/70/1 563/73/1 564/65/1
f 565/75/1 566/74/1 567/65/1 568/64/1
f 569/76/1 570/75/1 571/64/1 572/68/1
f 573/9/1 574/12/1 575/13/1 576/10/1
f 577/7/1 578/9/1 579/10/1 580/11/1
f 581/77/1 582/78/1 583/79/1 584/80/1
f 585/81/1 586/82/1 587/71/1 588/70/1
f 589/83/1 590/81/1 591/70/1 592/74/1
f 593/9/1 594/12/1 595/13/1 596/10/1
f 597/7/1 598/9/1 599/10/1 600/11/1
f 601/9/1 602/12/1 603/13/1 604/10/1
f 605/7/1 606/9/1 607/10/1 608/11/1
f 609/9/1 610/12/1 611/13/1 612/10/1
f 613/7/1 614/9/1 615/10/1 616/11/1
f 617/84/1 618/85/1 619/86/1 620/87/1
f 621/88/1 622/84/1 623/87/1 624/89/1
f 625/9/1 626/12/1 627/13/1 628/10/1
f 629/7/1 630/9/1 631/10/1 632/11/1
f 633/9/1 634/12/1 635/13/1 636/10/1
f 637/15/1 638/18/1 639/19/1 640/16/1
f 641/8/1 642/7/1 643/11/1 644/26/1
f 645/8/1 646/7/1 647/11/1 648/26/1
f 649/8/1 650/7/1 651/11/1 652/26/1
f 653/8/1 654/7/1 655/11/1 656/26/1
f 657/8/1 658/7/1 659/11/1 660/26/1
f 661/8/1 662/7/1 663/11/1 664/26/1
f 665/8/1 666/7/1 667/11/1 668/26/1
f 669/8/1 670/7/1 671/11/1 672/26/1
f 673/8/1 674/7/1 675/11/1 676/26/1
f 677/8/1 678/7/1 679/11/1 680/26/1
f 681/8/1 682/7/1 683/11/1 684/26/1
f 685/8/1 686/7/1 687/11/1 688/26/1
f 689/8/1 690/7/1 691/11/1 692/26/1
f 693/8/1 694/7/1 695/11/1 696/26/1
f 697/8/1 698/7/1 699/11/1 700/26/1
f 701/8/1 702/7/1 703/11/1 704/26/1
f 705/8/1 706/7/1 707/11/1 708/26/1
f 709/8/1 710/7/1 711/11/1 712/26/1
f 713/8/1 714/7/1 715/11/1 716/26/1
f 717/8/1 718/7/1 719/11/1 720/26/1
f 721/8/1 722/7/1 723/11/1 724/26/1
f 725/8/1 726/7/1 727/11/1 728/26/1
f 729/8/1 730/7/1 731/11/1 732/26/1
f 733/18/1 734/28/1 735/90/1 736/19/1

